<?xml version="1.0" encoding="UTF-8" standalone="no"?>
<!-- Created with Inkscape (http://www.inkscape.org/) -->

<svg
   xmlns:dc="http://purl.org/dc/elements/1.1/"
   xmlns:cc="http://creativecommons.org/ns#"
   xmlns:rdf="http://www.w3.org/1999/02/22-rdf-syntax-ns#"
   xmlns:svg="http://www.w3.org/2000/svg"
   xmlns="http://www.w3.org/2000/svg"
   xmlns:xlink="http://www.w3.org/1999/xlink"
   xmlns:sodipodi="http://sodipodi.sourceforge.net/DTD/sodipodi-0.dtd"
   xmlns:inkscape="http://www.inkscape.org/namespaces/inkscape"
   width="1200"
   height="1200"
   viewBox="0 0 317.5 317.5"
   version="1.1"
   id="svg235"
   inkscape:version="0.92.5 (2060ec1f9f, 2020-04-08)"
   sodipodi:docname="todoist.svg">
  <defs
     id="defs229">
    <linearGradient
       gradientTransform="translate(-0.81120392,-1.4887227)"
       inkscape:collect="always"
       xlink:href="#linearGradient443"
       id="linearGradient437"
       gradientUnits="userSpaceOnUse"
       x1="16.067551"
       y1="20.497839"
       x2="310.99768"
       y2="148.38809" />
    <linearGradient
       id="linearGradient443"
       inkscape:collect="always">
      <stop
         id="stop439"
         offset="0"
         style="stop-color:#fe3e35;stop-opacity:1;" />
      <stop
         style="stop-color:#fe5e2f;stop-opacity:1;"
         offset="0.50090039"
         id="stop445" />
      <stop
         id="stop441"
         offset="1"
         style="stop-color:#ffd42a;stop-opacity:1" />
    </linearGradient>
    <linearGradient
       inkscape:collect="always"
       xlink:href="#linearGradient443"
       id="linearGradient4891"
       gradientUnits="userSpaceOnUse"
       gradientTransform="translate(-0.81120392,-1.4887227)"
       x1="8.748704"
       y1="105.34291"
       x2="310.37372"
       y2="182.07208" />
  </defs>
  <sodipodi:namedview
     id="base"
     pagecolor="#ffffff"
     bordercolor="#666666"
     borderopacity="1.0"
     inkscape:pageopacity="0.0"
     inkscape:pageshadow="2"
     inkscape:zoom="1.4"
     inkscape:cx="-86.618625"
     inkscape:cy="938.949"
     inkscape:document-units="mm"
     inkscape:current-layer="a4866"
     showgrid="true"
     units="px"
     inkscape:window-width="3776"
     inkscape:window-height="1569"
     inkscape:window-x="0"
     inkscape:window-y="1440"
     inkscape:window-maximized="1"
     showguides="true">
    <inkscape:grid
       type="xygrid"
       id="grid4877" />
  </sodipodi:namedview>
  <metadata
     id="metadata232">
    <rdf:RDF>
      <cc:Work
         rdf:about="">
        <dc:format>image/svg+xml</dc:format>
        <dc:type
           rdf:resource="http://purl.org/dc/dcmitype/StillImage" />
        <dc:title />
      </cc:Work>
    </rdf:RDF>
  </metadata>
  <g
     inkscape:label="Layer 1"
     inkscape:groupmode="layer"
     id="layer1"
     transform="translate(0,20.499981)">
    <a
       id="a4866">
      <path
         sodipodi:nodetypes="czzzzzzzzzzczzzccscssccccsscscccscscccccccscczzczzzczzzsszzcssssassccssccsccc"
         inkscape:connector-curvature="0"
         id="path332"
         d="m 9.2604167,66.812519 c 0,-13.890625 7.3964363,-29.381789 11.9062503,-37.041667 C 25.676482,22.110974 41.010416,5.9583524 50.270833,0.66668567 59.53125,-4.624981 79.265868,-12.573599 93.927083,-12.562481 c 14.661217,0.01112 116.726307,0.0383 125.677087,0 8.95078,-0.0383 29.10416,2.6458333 42.33333,9.2604167 13.22917,6.6145833 26.45833,19.8437503 33.07292,29.1041663 6.61458,9.260417 13.32815,27.542945 13.22916,41.010417 -0.099,13.467472 0.0885,130.153311 0,138.906251 -0.0885,8.75294 -6.61458,30.42708 -10.58333,38.36458 -3.96875,7.9375 -15.875,23.8125 -26.45833,29.10417 -10.58333,5.29166 -30.33689,11.80494 -42.33334,11.90625 H 95.25 c -6.614584,0 -27.78125,-3.96875 -38.364583,-7.9375 -10.583333,-3.96875 -25.291794,-13.95484 -31.75,-23.8125 C 18.677211,243.48611 9.0349977,222.68813 9.2604167,208.3646 m 26.4583333,-82.81458 21.530837,12.5235 c 11.892973,6.9176 21.427786,11.86828 21.873546,12.05453 2.47476,1.03402 6.745044,1.7865 9.309954,0.61915 0.66769,-0.30389 20.090733,-11.61175 43.393283,-25.01311 30.09356,-17.30688 42.94414,-24.37256 43.89265,-24.62006 2.29466,-0.59876 3.44566,-0.22604 8.93134,2.89218 2.63271,1.49652 5.03442,2.94358 5.33713,3.21569 0.91126,0.81916 1.17535,2.13124 0.68657,3.41109 l -0.41332,1.08225 -50.77864,30.10155 c -32.22798,19.10473 -52.052433,28.94022 -52.952333,29.22104 -1.87139,0.58398 -3.57368,1.02225 -5.50202,0.36192 -1.70386,-0.58344 -4.157902,-2.30982 -28.710978,-16.13172 -8.976884,-5.05344 -16.598019,-9.60968 -16.598019,-9.60968 v 21.43125 l 21.636176,12.95036 c 15.716216,9.40696 22.05417,12.70566 23.27441,13.08313 2.41905,0.74831 5.56053,0.56694 7.71671,-0.44552 0.8491,-0.3987 20.445674,-11.592 43.547914,-24.87399 23.10224,-13.28199 42.47063,-24.33458 43.04088,-24.5613 1.31048,-0.52103 3.51697,-0.5092 4.82737,0.0259 0.55453,0.22644 3.11118,1.61355 5.68147,3.08247 4.40678,2.5185 4.70012,2.73104 5.14479,3.72753 0.5591,1.25298 0.42821,2.41008 -0.37309,3.29819 -0.70778,0.78444 -101.634804,58.83366 -103.360484,59.44884 -1.70526,0.60791 -4.09645,0.63953 -5.77067,0.0763 -1.40773,-0.47355 -6.65634,-3.45079 -28.09967,-15.93934 -10.966308,-5.88678 -17.265806,-9.76423 -17.265806,-9.76423 0,0 0.242305,10.63713 0,21.16666 -0.242305,10.52953 5.882364,31.66556 18.055628,39.44482 12.173264,7.77926 26.455491,10.90966 41.475622,10.82602 5.76817,0.0808 127.55862,0.093 133.61458,0 6.05596,-0.093 15.875,1.32291 25.13542,-3.96875 9.26042,-5.29167 19.00199,-13.561 22.48958,-21.16667 3.48759,-7.60567 5.09821,-22.06336 5.29167,-27.78125 0.26845,-54.21963 0.29064,-132.760273 0,-138.906251 -0.29064,-6.145979 -1.75173,-19.73095 -6.26903,-27.768892 C 270.99491,31.005685 263.8771,23.751712 252.88323,17.612266 241.88936,11.472819 233.06303,11.399852 219.53328,11.228839 209.26913,11.099101 105.1428,10.978133 93.932189,11.150559 80.909977,11.350848 72.760416,13.895853 63.5,19.187519 c -9.260417,5.291667 -17.197917,11.90625 -22.489583,23.8125 -5.291667,11.90625 -5.222752,15.48605 -5.291667,23.8125 -0.06891,8.326451 0.02718,17.059857 0.02718,17.059857 L 58.016417,95.58827 c 12.167517,6.401 22.006205,12.74455 22.607126,12.96236 0.600929,0.21781 2.225088,0.73925 3.378268,0.81229 1.7028,0.10785 2.0467,-0.44491 3.007418,-0.84702 15.429221,-6.45785 11.713944,-6.51906 43.589401,-24.856544 23.36932,-13.444024 43.57679,-23.891774 44.21253,-24.141178 1.3002,-0.510076 3.33676,-0.59014 4.57433,-0.17983 0.45392,0.15049 3.05537,1.54355 5.78099,3.09567 4.70065,2.67683 4.97981,2.87643 5.42462,3.8788 0.55639,1.2538 0.42406,2.41394 -0.37569,3.29384 -0.39982,0.43989 -60.47253,35.147082 -99.839911,57.682802 -1.33539,0.76444 -3.00805,1.5801 -3.71702,1.81257 -2.29501,0.75256 -4.94491,0.4903 -7.34746,-0.72715 -0.99203,-0.5027 -18.48335,-10.61407 -36.28115,-20.97338 -3.59856,-2.09456 -7.311119,-4.07648 -7.311119,-4.07648 v 22.225"
         style="fill:url(#linearGradient4891);fill-opacity:1;stroke-width:0.2427981" />
    </a>
  </g>
</svg>
