<?xml version="1.0" encoding="UTF-8" standalone="no"?>
<!-- Created with Inkscape (http://www.inkscape.org/) -->

<svg
   xmlns:dc="http://purl.org/dc/elements/1.1/"
   xmlns:cc="http://creativecommons.org/ns#"
   xmlns:rdf="http://www.w3.org/1999/02/22-rdf-syntax-ns#"
   xmlns:svg="http://www.w3.org/2000/svg"
   xmlns="http://www.w3.org/2000/svg"
   xmlns:xlink="http://www.w3.org/1999/xlink"
   xmlns:sodipodi="http://sodipodi.sourceforge.net/DTD/sodipodi-0.dtd"
   xmlns:inkscape="http://www.inkscape.org/namespaces/inkscape"
   width="1200"
   height="1200"
   viewBox="0 0 317.5 317.5"
   version="1.1"
   id="svg235"
   inkscape:version="0.92.5 (2060ec1f9f, 2020-04-08)"
   sodipodi:docname="todoist-neon.svg">
  <defs
     id="defs229">
    <linearGradient
       gradientTransform="translate(-0.81120392,-1.4887227)"
       inkscape:collect="always"
       xlink:href="#linearGradient443"
       id="linearGradient437"
       gradientUnits="userSpaceOnUse"
       x1="16.067551"
       y1="20.497839"
       x2="310.99768"
       y2="148.38809" />
    <linearGradient
       id="linearGradient443"
       inkscape:collect="always">
      <stop
         id="stop439"
         offset="0"
         style="stop-color:#fe3e35;stop-opacity:1;" />
      <stop
         style="stop-color:#fe5e2f;stop-opacity:1;"
         offset="0.50090039"
         id="stop445" />
      <stop
         id="stop441"
         offset="1"
         style="stop-color:#ffd42a;stop-opacity:1" />
    </linearGradient>
    <linearGradient
       inkscape:collect="always"
       xlink:href="#linearGradient443"
       id="linearGradient4891"
       gradientUnits="userSpaceOnUse"
       gradientTransform="translate(-0.81120392,-1.4887227)"
       x1="8.748704"
       y1="105.34291"
       x2="310.37372"
       y2="182.07208" />
    <linearGradient
       inkscape:collect="always"
       xlink:href="#linearGradient443"
       id="linearGradient949"
       gradientUnits="userSpaceOnUse"
       gradientTransform="matrix(3.7795276,0,0,3.7795276,-3.0659676,71.853575)"
       x1="8.748704"
       y1="105.34291"
       x2="310.37372"
       y2="182.07208" />
  </defs>
  <sodipodi:namedview
     id="base"
     pagecolor="#ffffff"
     bordercolor="#666666"
     borderopacity="1.0"
     inkscape:pageopacity="0.0"
     inkscape:pageshadow="2"
     inkscape:zoom="1.979899"
     inkscape:cx="142.5742"
     inkscape:cy="741.91493"
     inkscape:document-units="mm"
     inkscape:current-layer="a4866"
     showgrid="true"
     units="px"
     inkscape:window-width="3776"
     inkscape:window-height="1569"
     inkscape:window-x="0"
     inkscape:window-y="1440"
     inkscape:window-maximized="1"
     showguides="true">
    <inkscape:grid
       type="xygrid"
       id="grid4877" />
  </sodipodi:namedview>
  <metadata
     id="metadata232">
    <rdf:RDF>
      <cc:Work
         rdf:about="">
        <dc:format>image/svg+xml</dc:format>
        <dc:type
           rdf:resource="http://purl.org/dc/dcmitype/StillImage" />
        <dc:title></dc:title>
      </cc:Work>
    </rdf:RDF>
  </metadata>
  <g
     inkscape:label="Layer 1"
     inkscape:groupmode="layer"
     id="layer1"
     transform="translate(0,20.499981)">
    <a
       id="a4866">
      <path
         style="fill:url(#linearGradient949);fill-opacity:1;stroke-width:0.91766214"
         d="M 355,30 C 299.58753,29.957979 225,60 190,80 155,100 97.04497,161.04928 80,190 62.955034,218.95072 35.000001,265.00001 35,315 35,331 45.000001,355 84.95508,355 110,355 120,345 125,330 c 5,-30 10,-45 30,-90 20,-45 50,-70 85,-90 35,-20 65.80172,-29.618 115.01953,-30.375 42.37081,-0.65169 435.91925,-0.19543 474.71289,0.29492 51.13606,0.64635 84.49524,0.92275 126.04688,24.12696 41.55163,23.2042 68.454,50.62037 85.5273,81 C 1058.3799,255.4265 1063.9015,306.7711 1065,330 c 1.0985,23.22889 1.0146,320.07541 0,525 -0.7312,21.61092 -6.8186,76.25416 -20,105 -13.1814,28.74584 -49.99999,60 -85,80 -35.00001,20 -72.11133,14.6485 -95,15 -22.88867,0.3515 -483.19904,0.3054 -505,0 -56.769,0.3161 -110.74863,-11.516 -156.75781,-40.918 C 157.233,984.6801 133.22461,902.05475 123.22461,862.05475 118.22461,837.05475 110,825.00001 85,825 c -25.999999,10e-6 -50,16.00001 -50,40 -0.851977,54.13618 35.591032,132.7427 60,170 24.40897,37.2573 80,75 120,90 40,15 120,30 145,30 h 505 c 45.34091,-0.3829 120.00001,-25 160,-45 40,-20 85,-80 100,-110 15,-30 39.6655,-111.91802 40,-145 0.3345,-33.08198 -0.3742,-474.09932 0,-525 0.3741,-50.90068 -25,-120 -50,-155 C 1090,140 1040,90 990,65 939.99999,40 863.82972,29.855244 830,30 796.17028,30.144756 410.41247,30.04203 355,30 Z m -48.53906,852.14648 c 6.32776,2.12875 15.36351,2.01051 21.80859,-0.2871 6.52226,-2.32509 387.97922,-221.72465 390.6543,-224.68946 3.02853,-3.35663 3.52329,-7.72917 1.41015,-12.46484 -1.68064,-3.76626 -2.78976,-4.56915 -19.44531,-14.08789 -9.71448,-5.55183 -19.37679,-10.79456 -21.47265,-11.65039 -4.9527,-2.02243 -13.29115,-2.06691 -18.24414,-0.0977 -2.15528,0.8569 -75.36023,42.63043 -162.67579,92.83008 -87.31555,50.19965 -161.38064,92.50482 -164.58984,94.01172 -8.14934,3.82662 -20.02315,4.51185 -29.16602,1.68359 -4.61193,-1.42666 -28.56497,-16.89531 -87.96484,-52.44918 C 135,710.00001 135,699.77797 135,755.00001 c 0,30 0,30 62.85197,71.09294 58.09442,37.98242 75.39852,43.82712 108.60897,56.05349 z M 671.76172,300.77734 c -3.82891,-0.12051 -7.98726,0.4494 -11.0586,1.6543 -2.40279,0.94263 -78.77657,40.43013 -167.10156,91.24219 -120.47417,69.30702 -106.43288,69.53769 -164.74804,93.94531 -3.63106,1.51979 -4.93141,3.60879 -11.36719,3.20117 -4.35848,-0.27605 -10.49635,-2.24709 -12.76758,-3.07031 C 302.44755,486.92678 265,465.00001 219.27539,438.75781 135,390 135,380 135.01292,439.12563 135,465.00001 135,465.00001 162.63281,483.40625 c 67.26728,39.1533 133.3756,77.36956 137.125,79.26953 9.08051,4.60139 19.09548,5.59432 27.76953,2.75 2.67958,-0.87863 9.00169,-3.96234 14.04883,-6.85156 148.7901,-85.17438 375.83653,-216.3511 377.34766,-218.01367 3.02268,-3.32561 3.52281,-7.71045 1.41992,-12.44922 -1.68117,-3.78849 -2.73572,-4.54301 -20.50195,-14.66016 -10.30156,-5.86628 -20.13401,-11.13044 -21.84961,-11.69922 -1.75404,-0.58154 -3.93313,-0.9023 -6.23047,-0.97461 z m -1.60938,157.96289 c -1.95139,0.002 -3.84939,0.33659 -6.01757,0.90235 -3.58492,0.93543 -52.15314,27.6409 -165.89258,93.05273 -88.07263,50.65081 -161.48426,93.3905 -164.00781,94.53907 -9.69415,4.41203 -25.83213,1.56631 -35.18555,-2.3418 -1.68476,-0.70394 -37.72206,-19.41529 -82.67188,-45.56055 C 135,555.00001 135,545.00001 135,599.00001 c 0,31 0,31 62.73242,65.3203 92.79903,52.24025 102.07389,58.76558 108.51367,60.97071 7.28822,2.49573 13.72196,0.83802 20.79493,-1.36914 3.40119,-1.06137 78.32822,-38.23456 200.13476,-110.44141 l 191.91992,-113.76953 1.5625,-4.08985 c 1.84736,-4.83722 0.84843,-9.79654 -2.5957,-12.89257 -1.1441,-1.02845 -10.22148,-6.49816 -20.17188,-12.1543 -15.54995,-8.83905 -21.88409,-11.84006 -27.73828,-11.83399 z"
         transform="matrix(0.26458333,0,0,0.26458333,0,-20.499981)"
         id="path332"
         inkscape:connector-curvature="0"
         sodipodi:nodetypes="ssscccssssssscssscccccssscssscsssscccccccscsccscccscsccccccscccccccscccccccccccccc" />
      <rect
         style="opacity:1;fill:#000000;fill-opacity:0;stroke-width:0.26458332"
         id="rect926"
         width="26.458332"
         height="105.83333"
         x="7.9375"
         y="82.687515" />
      <rect
         style="opacity:1;fill:#000000;fill-opacity:0;stroke-width:0.26458332"
         id="rect934"
         width="26.458332"
         height="71.4375"
         x="9.260417"
         y="84.010437" />
      <rect
         style="opacity:1;fill:#000000;fill-opacity:0;stroke-width:0.26458332"
         id="rect936"
         width="26.458332"
         height="103.1875"
         x="9.260417"
         y="84.010437" />
      <rect
         style="opacity:1;fill:#cddd00;fill-opacity:0;stroke-width:0.26458332"
         id="rect938"
         width="26.458332"
         height="103.1875"
         x="9.260417"
         y="84.010437" />
    </a>
  </g>
</svg>
